<?xml version="1.0" encoding="utf-8"?>
<!-- Generator: Adobe Illustrator 20.1.0, SVG Export Plug-In . SVG Version: 6.00 Build 0)  -->
<svg version="1.1" id="Capa_1" xmlns="http://www.w3.org/2000/svg" xmlns:xlink="http://www.w3.org/1999/xlink" x="0px" y="0px"
	 viewBox="0 0 401.5 401.5" style="enable-background:new 0 0 401.5 401.5;" xml:space="preserve">
<path id="XMLID_213_" d="M209.3,127.8c0-5,4-9,9-9h2.1c5,0,9,4,9,9c0,5-4,9-9,9h-2.1C213.3,136.8,209.3,132.8,209.3,127.8z
	 M353.5,394.9c-0.3,1.1-0.8,2.1-1.5,2.9c-0.8,1-1.7,1.9-2.8,2.5c-1.1,0.6-2.3,1-3.6,1.1c-0.3,0-256.8,0-256.8,0
	c-22.7,0-41.3-18.5-41.3-41.3V39.1C47.6,17.5,65.1,0,86.7,0h228.1c10.4,0,20.2,4.1,27.6,11.5s11.5,17.2,11.5,27.6v288.7
	c0,0.3,0,0.6,0,0.9c-0.1,1.3-0.5,2.5-1.1,3.6c-0.6,1.1-1.4,2.1-2.5,2.8c-0.2,0.2-0.5,0.3-0.8,0.5c-7.7,4.9-12.6,14.2-12.6,24.5
	s4.8,19.7,12.6,24.5c0.3,0.2,0.5,0.3,0.8,0.5h0c0,0,0,0,0,0c1,0.8,1.9,1.8,2.5,2.8c0.6,1.1,1,2.3,1.1,3.6
	C353.9,392.8,353.8,393.9,353.5,394.9z M84.9,360.2c0-5,4-9,9-9h225.9c0.9-5.1,2.6-9.9,5-14.3H88.9c-12.8,0-23.3,10.4-23.3,23.3
	s10.4,23.3,23.3,23.3h235.9c-2.3-4.4-4-9.2-5-14.3H93.9C88.9,369.2,84.9,365.2,84.9,360.2z M335.9,39.1c0-5.6-2.2-10.9-6.2-14.9
	s-9.3-6.2-14.9-6.2l-18.2,0l-210,0C75,18,65.6,27.4,65.6,39.1v287.1c6.6-4.5,14.6-7.2,23.3-7.2h247L335.9,39.1L335.9,39.1z
	 M269.7,201.5c-4.7-1.6-9.8,0.9-11.4,5.6c-1.6,4.7,0.9,9.8,5.6,11.4c4.9,1.7,8.2,6.2,8.2,11.3c0,6.6-5.4,12-12,12h-81.5
	c-6.6,0-12-5.4-12-12c0-5.1,3.3-9.7,8.2-11.3c4.7-1.6,7.2-6.7,5.6-11.4s-6.7-7.2-11.4-5.6c-12.2,4.1-20.4,15.5-20.4,28.4
	c0,16.5,13.4,30,30,30h81.5c16.5,0,30-13.4,30-30C290.1,217.1,281.9,205.7,269.7,201.5z M91,30.5c-5,0-9,4-9,9v258c0,5,4,9,9,9
	s9-4,9-9v-258C100,34.5,96,30.5,91,30.5z M194.6,194.4c-16-31.5-26-53.7-26-66.6c0-28,22.7-50.7,50.7-50.7s50.7,22.7,50.7,50.7
	c0,13-9.9,35.1-26,66.6c0,0-5.7,11.3-6,11.9c-2.3,4.9-6.6,13.9-18.7,13.9c-12.1,0-16.4-9-18.7-13.9
	C200.4,205.7,194.6,194.4,194.6,194.4z M186.7,127.8c0,11.2,16.8,44.3,24,58.4c0,0,5.9,11.6,6.2,12.3c0.6,1.2,1.4,3,1.9,3.6
	c0.2,0,0.8,0,1,0c0.5-0.6,1.4-2.4,1.9-3.6c0.3-0.7,6.2-12.3,6.2-12.3c7.2-14.1,24-47.2,24-58.4c0-18-14.7-32.7-32.7-32.7
	C201.3,95.1,186.7,109.7,186.7,127.8z"/>
</svg>
