<?xml version="1.0" encoding="UTF-8"?>
<svg width="35px" height="33px" viewBox="0 0 35 33" version="1.1" xmlns="http://www.w3.org/2000/svg" xmlns:xlink="http://www.w3.org/1999/xlink">
    <!-- Generator: Sketch 40.1 (33804) - http://www.bohemiancoding.com/sketch -->
    <title>menu-button-of-three-horizontal-lines</title>
    <desc>Created with Sketch.</desc>
    <defs></defs>
    <g id="Page-1" stroke="none" stroke-width="1" fill="none" fill-rule="evenodd">
        <g id="01-Accueil-mobile-hover-search" transform="translate(-319.000000, -21.000000)" fill="#FFFFFF">
            <g id="header">
                <g id="menu-button-of-three-horizontal-lines" transform="translate(319.000000, 21.000000)">
                    <g id="Capa_1">
                        <g id="Group">
                            <path d="M31.376607,0 L3.36177932,0 C1.51280069,0 0,1.59107143 0,3.53571429 C0,5.48035714 1.51280069,7.07142857 3.36177932,7.07142857 L31.376607,7.07142857 C33.2255856,7.07142857 34.7383863,5.48035714 34.7383863,3.53571429 C34.7383863,1.59107143 33.2255856,0 31.376607,0 L31.376607,0 Z" id="Shape"></path>
                            <path d="M31.376607,12.9642857 L3.36177932,12.9642857 C1.51280069,12.9642857 0,14.5553571 0,16.5 C0,18.4446429 1.51280069,20.0357143 3.36177932,20.0357143 L31.376607,20.0357143 C33.2255856,20.0357143 34.7383863,18.4446429 34.7383863,16.5 C34.7383863,14.5553571 33.2255856,12.9642857 31.376607,12.9642857 L31.376607,12.9642857 Z" id="Shape"></path>
                            <path d="M31.376607,25.9285714 L3.36177932,25.9285714 C1.51280069,25.9285714 0,27.5196429 0,29.4642857 C0,31.4089286 1.51280069,33 3.36177932,33 L31.376607,33 C33.2255856,33 34.7383863,31.4089286 34.7383863,29.4642857 C34.7383863,27.5196429 33.2255856,25.9285714 31.376607,25.9285714 L31.376607,25.9285714 Z" id="Shape"></path>
                        </g>
                    </g>
                </g>
            </g>
        </g>
    </g>
</svg>