<?xml version="1.0" encoding="UTF-8"?>
<svg width="186px" height="54px" viewBox="0 0 186 54" version="1.1" xmlns="http://www.w3.org/2000/svg" xmlns:xlink="http://www.w3.org/1999/xlink">
    <!-- Generator: Sketch 40.1 (33804) - http://www.bohemiancoding.com/sketch -->
    <title>logoblanc</title>
    <desc>Created with Sketch.</desc>
    <defs></defs>
    <g id="Page-1" stroke="none" stroke-width="1" fill="none" fill-rule="evenodd">
        <g id="01-accueil-hover" transform="translate(-162.000000, -21.000000)" fill="#FFFFFF">
            <g id="header">
                <g id="logoblanc" transform="translate(162.000000, 21.000000)">
                    <g id="Calque_1">
                        <path d="M40.7220482,11.6325 C36.8637885,20.0353073 34.9673272,29.1961798 35.1744955,38.43 C33.8292691,38.8881894 32.4013749,39.0569201 30.9855271,38.925 C29.4383383,39.2673433 27.8478457,38.5639092 27.0682756,37.1925 C24.6122099,30.0634435 22.8085459,22.7287023 21.6792244,15.2775 C19.0029772,22.7155881 17.1356094,30.4169523 16.1090286,38.25 C16.1090286,38.25 13.0748569,39.375 11.3766265,37.8675 L11.218125,38.0925 C10.9916943,38.3175 10.3576883,36.6975 10.3576883,36.6975 C10.4123558,37.326329 10.4123558,37.958671 10.3576883,38.5875 C10.1312575,38.5875 9.92746988,38.5875 9.81425452,38.0925 C9.02174699,34.965 5.60264307,12.33 1.79860693,5.085 C0.711739458,4.77 -0.148697289,3.8925 0.598524096,3.3525 C0.598524096,3.3525 11.0822666,-2.8575 13.1427861,10.9125 C13.6862199,14.535 14.0711521,18.09 14.2749398,21.285 C15.8693089,16.6933492 17.8697109,12.2510016 20.2527108,8.01 C20.2527108,7.74 20.0942093,7.47 20.0262801,7.245 C19.5960617,7.245 19.4375602,6.5925 20.0262801,6.21 C22.9019503,5.2425 25.3474021,5.2425 26.0040512,7.4025 C26.9777033,10.53 27.7928539,16.4025 29.2193675,22.635 C31.6429056,14.7876999 34.8753609,7.21002159 38.8653163,0.0225 C39.091747,0.0225 39.1370331,0.5625 39.1370331,0.5625 L39.8389684,0.135 C39.9962205,0.514674777 40.1935648,0.876700733 40.4276883,1.215 C40.8579066,1.53 42.216491,1.98 42.3749925,2.1825 C42.533494,2.385 44.1411521,4.545 40.7220482,11.6325 L40.7220482,11.6325 Z" id="Shape"></path>
                        <path d="M63.5462651,37.665 C63.5462651,38.0475 62.9575452,39.915 62.9575452,39.915 L62.4593976,39.645 C55.4279015,39.0859285 48.3519672,39.7251307 41.5371988,41.535 C37.7331627,42.7725 36.6462952,37.5975 38.2313102,34.0875 C43.9373645,30.8025 61.1008133,32.2425 62.7990437,35.1675 L62.5273268,35.1675 L63.2971913,36.09 L62.7990437,36.09 C62.7990437,36.09 63.6594804,37.2825 63.5462651,37.665 L63.5462651,37.665 Z M38.0048795,26.2575 C41.2213143,18.6493098 43.3772239,10.6403348 44.412869,2.4525 C48.9414834,1.8 51.3642922,1.9575 52.6096611,2.835 C54.7381099,2.835 56.7307003,3.4875 57.1382756,5.9625 C58.395728,14.3396194 60.5437377,22.5605969 63.5462651,30.4875 L62.6858283,29.6325 L62.3008961,30.2175 L61.7121762,29.835 L61.2140286,29.6325 L60.6253087,30.1275 C60.6253087,30.1275 60.398878,29.6325 60.1271611,29.16 C59.9686596,29.5875 59.2667244,31.275 59.2667244,31.275 L58.7685768,30.96 C53.2961268,29.7442027 47.6210117,29.7442027 42.1485617,30.96 C39.6578238,31.3875 38.6162425,29.4525 38.6615286,27.135 C38.480384,26.64 38.3218825,26.2575 38.0048795,26.2575 L38.0048795,26.2575 Z M53.8550301,23.175 C52.6549473,20.43 51.5907229,17.6625 50.5944277,15.075 C49.6421246,17.4672333 48.568989,19.8102103 47.3791114,22.095 C49.5782497,22.220236 51.7572045,22.5823579 53.8776732,23.175 L53.8550301,23.175 Z" id="Shape"></path>
                        <path d="M83.6985994,36.3825 C83.5400979,36.81 83.0419503,38.6325 83.0419503,38.6325 L82.5438027,38.4075 C76.9570173,37.9503431 71.3373766,38.7184494 66.0822892,40.6575 C62.278253,41.85 61.2366717,36.6525 62.7764006,33.21 L63.4330497,32.895 C63.4330497,23.0175 63.6594804,6.8175 62.8443298,2.2275 C62.8443298,2.0025 63.0707605,1.53 63.6141943,1.3725 C66.0596461,0.7875 72.4676355,0.18 71.8789157,10.0575 C71.3807681,18.81 70.407116,27.495 70.0221837,31.3425 C75.6150226,30.8475 81.8192244,31.995 82.951378,33.9975 L82.6796611,33.9975 L83.3815964,34.92 L82.8834488,34.92 C82.8834488,34.92 83.8118148,36.135 83.6985994,36.3825 L83.6985994,36.3825 Z" id="Shape"></path>
                        <path d="M102.560279,36.3825 C102.401777,36.81 101.90363,38.6325 101.90363,38.6325 L101.405482,38.4075 C95.8186965,37.9503431 90.1990558,38.7184494 84.9439684,40.6575 C81.1399322,41.85 80.0983509,36.6525 81.6380798,33.21 L82.2947289,32.895 C82.2947289,23.0175 82.5211596,6.8175 81.706009,2.2275 C81.706009,2.0025 81.9324398,1.53 82.4758735,1.3725 C84.9213253,0.7875 91.3293148,0.18 90.7405949,10.0575 C90.2424473,18.81 89.2687952,27.495 88.883863,31.3425 C94.4767018,30.8475 100.680904,31.995 101.813057,33.9975 L101.54134,33.9975 L102.243276,34.92 L101.745128,34.92 C101.745128,34.92 102.673494,36.135 102.560279,36.3825 L102.560279,36.3825 Z" id="Shape"></path>
                        <path d="M132.132131,26.325 C132.132131,26.7075 131.09055,27.675 131.09055,27.675 L130.818833,28.3275 L128.758313,29.295 L130.275399,29.4525 C129.423928,29.7868065 128.617669,30.2251798 127.875233,30.7575 C126.946867,31.455 126.675151,32.22 125.973215,32.49 C118.028787,34.1917412 110.314441,36.8199477 102.990497,40.32 C101.31491,41.13 98.2128087,34.065 100.929977,32.6475 C101.288973,32.4437509 101.66842,32.2778494 102.062131,32.1525 C102.062131,22.9275 102.333848,6.66 101.360196,3.2175 C102.735299,2.71760115 104.202676,2.51807098 105.66238,2.6325 C112.895327,2.10536762 120.151455,1.96266418 127.399729,2.205 C127.351244,2.66875204 127.351244,3.13624796 127.399729,3.6 C126.774491,3.89568349 126.207135,4.29946606 125.724142,4.7925 C125.56564,4.95 124.478773,5.715 124.478773,5.715 L125.56564,5.715 L123.776837,6.6375 L123.776837,7.29 C123.776837,7.29 121.51253,8.2125 121.286099,8.325 C121.059669,8.4375 115.46683,9.2475 110.689142,9.99 L110.689142,11.295 C110.689142,12.69 110.53064,13.995 110.417425,15.3 C114.925247,14.7505076 119.461699,14.4650144 124.003268,14.445 C123.916086,14.8389138 123.771132,15.2179617 123.57305,15.57 L123.346619,16.875 L121.671032,17.7975 L122.372967,17.7975 L120.584164,18.9225 L120.584164,19.4625 L118.63686,19.9575 L118.251928,20.61 C118.251928,20.61 116.304623,21.5325 115.534759,21.8025 C115.217756,21.8025 112.22887,22.6575 109.511702,23.31 C109.239985,26.1675 108.922982,28.395 108.696551,29.745 C115.919691,27.3825 125.882643,25.1325 132.132131,26.325 L132.132131,26.325 Z" id="Shape"></path>
                        <path d="M149.997515,26.4825 C152.060259,29.9835536 152.859038,34.0792077 152.261822,38.0925 C152.449774,35.1474642 151.781685,32.2108239 150.337161,29.6325 C150.337161,29.6325 152.397681,36.54 151.695745,38.8125 L151.424029,38.4975 C151.424029,38.4975 150.76738,39.5775 150.450377,39.6225 L149.046506,39.9375 L148.548358,39.3975 C147.332971,35.3559901 145.29871,31.6041349 142.570587,28.3725 C140.964467,28.5868456 139.345504,28.6920899 137.72497,28.6875 L137.407967,28.6875 C137.181536,31.8825 137.023035,34.1325 137.023035,34.1325 C137.023035,34.1325 136.638102,34.785 136.094669,35.64 C135.777666,36.135 135.007801,37.89 135.007801,37.89 C134.605884,38.0293545 134.247071,38.2696352 133.96622,38.5875 C133.803854,38.9397545 133.66025,39.3002527 133.536002,39.6675 L133.105783,39.6675 L132.449134,40.7025 C132.449134,40.7025 132.064202,40.4325 131.950986,40.4775 C131.837771,40.5225 131.520768,41.175 131.294337,41.175 C131.135836,40.2525 130.977334,33.9975 130.750904,26.7525 C128.830755,25.5538828 127.432927,23.6831548 126.833652,21.51 C126.620238,20.78009 126.543489,20.0174496 126.607221,19.26 C126.851856,20.6758875 127.408583,22.0204934 128.237523,23.1975 C127.331746,21.6061937 126.951582,19.7724766 127.150655,17.955 C127.929948,19.1978558 129.149988,20.1050969 130.569759,20.4975 C130.411258,16.9425 130.252756,13.4325 130.071611,10.5075 C128.984744,10.665 127.807304,10.89 126.765723,11.16 C125.022206,10.5075 123.346619,5.9175 125.248637,4.185 C127.150655,2.4525 157.424443,-4.5 157.265941,16.335 C157.261309,20.9092376 154.345453,24.9800846 149.997515,26.4825 L149.997515,26.4825 Z M138.155188,9.585 L138.155188,11.475 C138.155188,14.8725 137.928758,18.495 137.72497,21.8475 C144.291461,21.8475 152.714684,18.3825 152.986401,14.8275 C153.258117,11.79 147.82378,9.2025 138.155188,9.585 L138.155188,9.585 Z" id="Shape"></path>
                        <path d="M185.11692,7.1325 C185.11692,7.785 179.093863,26.7975 180.76945,43.1325 C180.76945,43.9425 180.54302,44.64 180.497733,45.3825 L179.637297,39.6675 C179.637297,39.6675 180.339232,46.4175 180.293946,46.4175 C180.293946,47.1825 180.293946,47.8125 180.135444,48.42 C180.135444,48.42 179.976943,47.565 179.976943,47.61 L179.976943,49.1175 C179.886168,50.120476 179.886168,51.129524 179.976943,52.1325 C179.976943,52.1325 179.976943,52.1325 179.705226,51.975 C179.652791,52.3168278 179.503578,52.6367802 179.275008,52.8975 C178.505143,53.3925 177.486205,53.7075 177.146559,53.055 C172.617944,44.37 172.14244,34.155 172.844375,24.975 C170.353637,31.5675 168.655407,36.9 167.455324,37.7775 C166.383183,38.3341157 165.144428,38.4859834 163.968291,38.205 C153.303404,36.81 159.122673,12.285 155.771498,5.7375 C155.56661,5.33262753 155.272508,4.97885877 154.911062,4.7025 C154.911062,2.655 156.496077,2.0025 159.145316,2.4525 C165.938238,3.3075 163.877718,9.9 164.692869,24.5925 C165.553306,24.5925 172.14244,10.5525 175.60683,5.4675 L175.60683,4.545 C175.923833,2.07 179.297651,2.295 180.54302,2.295 C181.79635,2.33021707 182.983814,2.86057915 183.84235,3.7685935 C184.700886,4.67660785 185.159617,5.88731382 185.11692,7.1325 L185.11692,7.1325 Z" id="Shape"></path>
                    </g>
                </g>
            </g>
        </g>
    </g>
</svg>