<?xml version="1.0" encoding="UTF-8"?>
<svg width="47px" height="47px" viewBox="0 0 47 47" version="1.1" xmlns="http://www.w3.org/2000/svg" xmlns:xlink="http://www.w3.org/1999/xlink">
    <!-- Generator: Sketch 40.1 (33804) - http://www.bohemiancoding.com/sketch -->
    <title>Group 8</title>
    <desc>Created with Sketch.</desc>
    <defs></defs>
    <g id="Page-1" stroke="none" stroke-width="1" fill="none" fill-rule="evenodd">
        <g id="01-accueil-hover" transform="translate(-1212.000000, -20.000000)">
            <g id="header">
                <g id="Group-8" transform="translate(1212.000000, 20.000000)">
                    <circle id="Oval-6" fill="#FFFFFF" cx="23.5" cy="23.5" r="23.5"></circle>
                    <path d="M27.8428656,22.6360179 L27.1550326,22.6360179 L26.915937,22.8733809 C27.7605682,23.8583508 28.2742772,25.13526 28.2742772,26.5343158 C28.2742772,29.6442912 25.7533779,32.1651905 22.6434025,32.1651905 C19.5334271,32.1651905 17.0125278,29.6442912 17.0125278,26.5343158 C17.0125278,23.4243403 19.5334271,20.903441 22.6434025,20.903441 C24.0424583,20.903441 25.3185011,21.4162838 26.3034711,22.2600487 L26.5425667,22.0226857 L26.5425667,21.3365853 L30.8722762,17.0129398 L32.1639122,18.3045758 L27.8428656,22.6360179 L27.8428656,22.6360179 Z M22.6434025,22.6360179 C20.4898095,22.6360179 18.7451046,24.3807228 18.7451046,26.5343158 C18.7451046,28.6870425 20.4898095,30.4326137 22.6434025,30.4326137 C24.7961292,30.4326137 26.5417004,28.6870425 26.5417004,26.5343158 C26.5417004,24.3807228 24.7961292,22.6360179 22.6434025,22.6360179 L22.6434025,22.6360179 Z" id="Shape" fill="#9B9B9B" transform="translate(24.588220, 24.589065) scale(1, -1) translate(-24.588220, -24.589065) "></path>
                </g>
            </g>
        </g>
    </g>
</svg>