<?xml version="1.0" encoding="utf-8"?>
<!-- Generator: Adobe Illustrator 20.1.0, SVG Export Plug-In . SVG Version: 6.00 Build 0)  -->
<svg version="1.1" id="Capa_1" xmlns="http://www.w3.org/2000/svg" xmlns:xlink="http://www.w3.org/1999/xlink" x="0px" y="0px"
	 viewBox="0 0 512 512" style="enable-background:new 0 0 512 512;" xml:space="preserve">
<style type="text/css">
	.st0{fill:#FFFFFF;}
</style>
<g>
	<path class="st0" d="M426.7,128V42.7H384V128h-85.3v42.7H384V256h42.7v-85.3H512V416c0,26.4-9.4,49.1-28.2,67.8
		C465.1,502.6,442.4,512,416,512H260c8.7-16.2,13-33.7,13-52.3c0-14.7-2.4-28.3-7.3-40.8c-4.9-12.5-11.1-22.9-18.5-31
		c-7.4-8.1-15.4-16-24-23.7c-8.6-7.7-16.6-14.3-24-19.8c-7.4-5.5-13.6-11.6-18.5-18.2c-4.9-6.6-7.3-13.2-7.3-19.8
		c0-8,2.6-15.6,7.7-22.7c5.1-7.1,11.3-13.9,18.7-20.5c7.3-6.6,14.6-13.7,21.8-21.5c7.2-7.8,13.4-18.1,18.5-31
		c5.1-12.9,7.7-27.4,7.7-43.7c0-16.2-2.9-32.4-8.8-48.5c-5.9-16.1-14.3-29.3-25.2-39.5c-1.3-1.3-2.9-2.6-4.7-3.7
		c-1.8-1.1-3.2-1.9-4.2-2.5c-1-0.6-2.1-1.6-3.3-3.2c-1.2-1.6-2.4-3.4-3.5-5.7h45l45-21.3H142.3c-30.7,0-57.8,4.3-81.5,12.8
		C37.2,64.1,16.9,78.9,0,100c0-28,9-51.7,27-71C45,9.7,68,0,96,0h320c26.4,0,49.1,9.4,67.8,28.2C502.6,46.9,512,69.6,512,96v32
		H426.7z M66.3,243.5c7.1,9.2,15.8,16.7,26,22.5c10.2,5.8,21,8.7,32.3,8.7c21.6,0,37.2-6.7,46.8-20.2c9.7-13.4,14.5-31.3,14.5-53.5
		c0-13.6-1.8-27.8-5.3-42.7c-3.6-14.9-8.8-29.3-15.7-43.3c-6.9-14-16.2-25.6-28-34.7c-11.8-9.1-25-13.7-39.7-13.7
		c-20.7,0-36.7,7.7-48.2,23C37.7,105,32,123.3,32,144.7c0,10.4,1.3,21.4,3.8,33c2.6,11.6,6.5,23.1,11.8,34.7
		C53,223.9,59.2,234.3,66.3,243.5z M107.3,321.7c0-5.6,2.3-15.1,7-28.7c-8.4,1.1-16.2,1.7-23.3,1.7c-37.8,0-68.1-13.1-91-39.3v144.3
		c33.6-17.3,76.3-26.8,128.3-28.3C114.3,353.1,107.3,336.6,107.3,321.7z M221.3,462.8c-1.1-3.7-3.1-7.5-5.8-11.5
		c-2.8-4-5.1-7.4-7-10.2c-1.9-2.8-4.8-6.1-8.8-9.8c-4-3.8-7.1-6.6-9.2-8.5c-2.1-1.9-5.7-4.7-10.7-8.5c-5-3.8-8.4-6.3-10.3-7.7
		c-1.9-1.3-5.6-3.9-11-7.7c-5.4-3.8-8.8-6.1-10.2-7c-3.8-0.4-9.2-0.7-16.3-0.7c-12.2,0-24.1,0.8-35.7,2.3c-11.6,1.6-23.4,4.2-35.7,8
		c-12.2,3.8-23.3,9.3-33.3,16.5c-10,7.2-17.7,15.8-23,25.8c6,20.2,17.5,36.6,34.5,49.2C55.8,505.7,74.9,512,96,512h126.7
		c2.2-7.3,3.3-15.2,3.3-23.7c0-4.7-0.5-9.2-1.5-13.5C223.5,470.5,222.4,466.5,221.3,462.8z"/>
</g>
</svg>
