<?xml version="1.0" encoding="utf-8"?>
<!-- Generator: Adobe Illustrator 20.1.0, SVG Export Plug-In . SVG Version: 6.00 Build 0)  -->
<svg version="1.1" id="Capa_1" xmlns="http://www.w3.org/2000/svg" xmlns:xlink="http://www.w3.org/1999/xlink" x="0px" y="0px"
	 viewBox="0 0 512 512" style="enable-background:new 0 0 512 512;" xml:space="preserve">
<style type="text/css">
	.st0{fill:#FFFFFF;}
</style>
<g>
	<g id="post-pinterest">
		<path class="st0" d="M460.8,0H51.2C23,0,0,23,0,51.2v409.6C0,489,23,512,51.2,512h409.6c28.2,0,51.2-23,51.2-51.2V51.2
			C512,23,489,0,460.8,0z M281.6,363.5c-20.5,0-41-7.7-53.8-23l-25.6,81.9l-2.6,5.1l0,0c-5.1,7.7-12.8,12.8-23,12.8
			c-15.4,0-28.2-12.8-28.2-28.2c0-2.6,0-2.6,0-2.6l0,0l2.6-5.1l46.1-143.4c0,0-5.1-15.4-5.1-38.4c0-43.5,23-56.3,43.5-56.3
			c17.9,0,35.8,7.7,35.8,33.3c0,33.3-23,51.2-23,76.8c0,17.9,15.4,33.3,33.3,33.3c58.9,0,81.9-46.1,81.9-87
			c0-56.3-48.6-102.4-107.5-102.4c-58.9,0-107.5,46.1-107.5,102.4c0,17.9,5.1,33.3,12.8,48.6c2.6,5.1,2.6,7.7,2.6,12.8
			c0,15.4-10.2,25.6-25.6,25.6c-10.2,0-17.9-5.1-23-12.8c-12.8-23-20.5-48.6-20.5-76.8c0-84.5,71.7-153.6,158.7-153.6
			s158.7,69.1,158.7,153.6C414.7,291.8,373.8,363.5,281.6,363.5z"/>
	</g>
</g>
</svg>
